<svg xmlns="http://www.w3.org/2000/svg" version="1.1" xmlns:xlink="http://www.w3.org/1999/xlink" xmlns:svgjs="http://svgjs.dev/svgjs" width="1440" height="560" preserveAspectRatio="none" viewBox="0 0 1440 560"><g mask="url(&quot;#SvgjsMask1855&quot;)" fill="none"><rect width="1440" height="560" x="0" y="0" fill="rgba(255, 255, 255, 0.97)"></rect><path d="M 0,87 C 57.6,125.4 172.8,288.6 288,279 C 403.2,269.4 460.8,56.6 576,39 C 691.2,21.4 748.8,196.2 864,191 C 979.2,185.8 1036.8,7.6 1152,13 C 1267.2,18.4 1382.4,177 1440,218L1440 560L0 560z" fill="rgba(209, 164, 214, 1)"></path><path d="M 0,384 C 96,414.8 288,538.2 480,538 C 672,537.8 768,406.4 960,383 C 1152,359.6 1344,413.4 1440,421L1440 560L0 560z" fill="rgba(169, 115, 160, 1)"></path></g><defs><mask id="SvgjsMask1855"><rect width="1440" height="560" fill="#ffffff"></rect></mask></defs></svg>